PathFileType	4	(X/Y/Z)	s02c0403.trc
DataRate	CameraRate	NumFrames	NumMarkers	Units	OrigDataRate	OrigDataStartFrame	OrigNumFrames
200	200	6	51	mm	200	1000	2000
Frame#	Time	racr			lacr			c7			jug			rlel			rdr			llel			ldr			s2			lic			ric			lasi			rasi			rpsi			lpsi			rgt			lgt			rth1			rth2			rth3			rth4			rlfc			rmfc			rsh1			rsh2			rsh3			rsh4			rlmal			rmmal			rcal			rtoe			rmt5			rmt1			lth1			lth2			lth4			lth3			llfc			lmfc			lsh1			lsh2			lsh3			lsh4			llmal			lmmal			lcal			ltoe			lmt5			SBIKE			LBIKE			RBIKE			
		X1	Y1	Z1	X2	Y2	Z2	X3	Y3	Z3	X4	Y4	Z4	X5	Y5	Z5	X6	Y6	Z6	X7	Y7	Z7	X8	Y8	Z8	X9	Y9	Z9	X10	Y10	Z10	X11	Y11	Z11	X12	Y12	Z12	X13	Y13	Z13	X14	Y14	Z14	X15	Y15	Z15	X16	Y16	Z16	X17	Y17	Z17	X18	Y18	Z18	X19	Y19	Z19	X20	Y20	Z20	X21	Y21	Z21	X22	Y22	Z22	X23	Y23	Z23	X24	Y24	Z24	X25	Y25	Z25	X26	Y26	Z26	X27	Y27	Z27	X28	Y28	Z28	X29	Y29	Z29	X30	Y30	Z30	X31	Y31	Z31	X32	Y32	Z32	X33	Y33	Z33	X34	Y34	Z34	X35	Y35	Z35	X36	Y36	Z36	X37	Y37	Z37	X38	Y38	Z38	X39	Y39	Z39	X40	Y40	Z40	X41	Y41	Z41	X42	Y42	Z42	X43	Y43	Z43	X44	Y44	Z44	X45	Y45	Z45	X46	Y46	Z46	X47	Y47	Z47	X48	Y48	Z48	X49	Y49	Z49	X50	Y50	Z50	X51	Y51	Z51	
1000	5.0000	781.699010	1172.368425	-105.265020	736.610636	1161.032747	-456.891075	775.098589	1220.583296	-293.248188	0.000000	0.000000	-0.000000	597.038834	994.593171	-21.786381	704.485188	871.984077	-135.701143	540.574488	1013.476964	-599.128309	686.464378	891.833492	-506.944487	231.013586	1218.811590	-250.244431	347.505367	1192.028627	-423.452130	343.833616	1165.300908	-108.861109	385.832707	1146.413115	-405.854735	388.125311	1130.735361	-143.543563	255.808903	1242.231427	-209.600562	260.985436	1250.181813	-292.311650	296.810790	1078.593547	-81.496333	283.792338	1117.915251	-436.356447	362.069134	996.651373	-87.664970	418.116594	929.014660	-98.440420	437.628737	845.596078	-87.352690	444.768217	942.176434	-121.927541	458.871162	710.227959	-133.972442	439.201822	705.590649	-242.735188	389.271809	624.058425	-118.707815	335.738410	553.289410	-138.199656	260.356052	513.975388	-130.170806	345.745686	546.298225	-175.731382	158.886208	442.167328	-133.893602	182.515912	456.859992	-215.293854	82.327333	473.565136	-182.214449	226.518170	225.741192	-194.782433	157.512634	307.293060	-132.675600	181.489308	296.148958	-240.753524	381.166332	1022.003979	-464.669411	448.037210	966.820592	-469.932125	476.038882	985.938037	-457.498143	478.547404	884.088529	-478.236137	536.845596	797.267215	-464.863519	546.611512	760.405900	-362.172053	505.161849	696.661297	-489.062728	488.631208	612.335451	-477.489245	429.423182	543.916213	-482.047793	506.564648	605.494338	-441.371322	364.634773	453.117411	-471.398276	380.568841	443.032606	-394.775928	291.151530	406.915420	-435.901445	572.148948	342.955074	-449.561563	462.501392	341.954721	-507.589047	-128.553436	869.624956	-314.306365	32.825212	82.353768	-515.196003	32.928304	82.445638	-115.094831	
1001	5.0050	781.857366	1173.594489	-106.023773	736.286776	1161.657618	-457.961371	774.815354	1221.315398	-294.222845	0.000000	0.000000	-0.000000	597.380575	995.372296	-22.587092	704.746999	872.112256	-135.819310	540.070568	1013.382905	-599.292158	686.272357	891.962759	-507.123414	230.618939	1216.321239	-250.852785	347.220197	1188.636652	-422.442970	343.745178	1164.277308	-109.281821	385.621553	1143.379621	-404.063153	387.972655	1129.854433	-143.938069	255.440716	1239.913410	-210.361038	260.377893	1247.713393	-293.028956	297.955010	1077.079927	-81.296952	283.823282	1114.677489	-436.560618	364.437762	996.271282	-88.328989	421.508590	929.649329	-99.373150	442.594057	846.669072	-88.571069	447.896301	943.412256	-123.006597	465.317874	711.414355	-135.116852	444.737679	707.184696	-243.775901	394.348567	625.899392	-120.650603	339.523943	556.469797	-139.102262	263.679248	518.255718	-131.017992	349.128416	549.341331	-176.813886	160.543462	449.196068	-134.198950	183.105737	463.750120	-215.242939	84.437216	481.685705	-182.248663	225.515257	232.063885	-194.821360	157.497926	314.493523	-132.746998	181.500869	302.881024	-240.763356	380.573386	1017.866534	-465.084530	446.781332	961.804429	-470.346649	475.011784	980.632853	-458.078440	476.228943	878.713274	-478.497446	533.400874	791.450489	-465.207037	542.040368	754.449285	-363.019935	502.155709	690.638390	-489.406616	486.705067	606.106420	-477.826812	428.400406	536.924611	-482.303332	504.822659	599.544181	-441.752838	364.946309	445.457406	-471.543275	381.082696	435.521689	-394.693133	291.462003	399.638085	-436.048940	572.694787	335.028796	-449.588644	463.025602	334.199265	-507.588231	-128.565132	869.637951	-314.373820	32.806498	82.318936	-515.176084	32.572505	82.643631	-115.247766	
1002	5.0100	782.061478	1174.591344	-106.733242	736.027442	1162.238806	-458.880974	774.624217	1222.212306	-295.107144	0.000000	0.000000	-0.000000	597.640031	996.173348	-23.296807	704.888109	872.263972	-135.813957	539.462096	1013.294915	-599.363599	686.092901	892.102522	-507.317460	230.589586	1213.880356	-251.041577	345.671917	1183.828996	-421.764361	343.526311	1163.085692	-109.693545	385.407037	1140.236727	-402.200294	387.799961	1128.793401	-144.294130	255.007896	1237.279171	-211.217898	259.005152	1244.372484	-294.317205	298.581644	1075.529074	-80.785792	283.875184	1111.290864	-436.757245	366.653617	995.845975	-88.939691	424.718830	930.208212	-100.325728	447.003686	847.632691	-89.834143	450.521686	944.348544	-123.971056	471.550951	712.598792	-136.358460	450.185597	708.706577	-244.789658	399.619292	628.166476	-121.646475	343.230163	559.782101	-139.995091	266.607840	523.374061	-131.330479	352.606567	552.595695	-177.679145	162.416803	456.102287	-134.362439	184.640326	470.578175	-215.422344	86.502673	489.823471	-182.188040	224.917471	238.479359	-194.844591	157.796006	321.727598	-132.783549	181.620611	309.850926	-240.779157	380.004966	1013.562003	-465.407172	445.470676	956.701002	-470.707186	473.988370	975.236312	-458.538289	473.839811	873.041743	-479.213050	529.970294	785.590323	-465.318126	538.620848	748.478494	-363.476243	498.997908	684.549051	-489.642200	484.760250	599.688676	-478.230177	427.207310	529.883374	-482.515888	502.944887	593.413331	-442.130510	365.028253	437.839514	-471.632717	381.247606	428.001738	-394.777655	291.550954	392.714420	-436.734583	573.112575	327.558177	-450.179994	463.275309	326.410111	-507.554836	-128.563351	869.622321	-314.389303	32.825209	82.325073	-515.195218	32.908673	82.449969	-115.127697	
1003	5.0150	782.229794	1175.782682	-107.305960	735.798465	1162.917486	-459.805698	774.372761	1223.025823	-295.815178	0.000000	0.000000	-0.000000	597.902361	996.994277	-23.942120	705.023780	872.395901	-135.787833	538.895417	1013.299827	-599.352599	685.921463	892.169688	-507.536890	230.216725	1210.983804	-251.911310	345.458675	1180.237630	-420.672174	343.245670	1161.860797	-110.233387	385.193509	1137.005577	-400.292862	387.602241	1127.792150	-144.654374	254.485066	1234.308421	-212.144496	258.503471	1241.480651	-295.251470	299.452920	1073.927316	-80.943335	283.994982	1107.803489	-437.003467	368.866184	995.484094	-89.489655	428.182318	930.799911	-101.117459	451.900644	848.609338	-90.871007	453.121932	945.016100	-124.882756	477.744792	713.771755	-137.570345	455.598345	710.267459	-245.684666	404.921313	630.426299	-122.605033	347.042168	563.143861	-140.759421	270.230377	528.138846	-131.856066	356.086292	555.921926	-178.585415	164.470932	463.262404	-134.426598	186.746943	477.541230	-215.669703	88.804815	497.904297	-182.200967	224.695442	245.122151	-194.911392	158.475205	329.111426	-132.581962	181.945462	316.951669	-240.852824	379.486651	1009.193326	-465.818683	444.193349	951.401692	-470.966325	472.935683	969.710859	-458.894952	471.636399	867.400307	-479.014663	526.469641	779.787607	-465.494061	535.034127	742.539267	-363.872071	495.794042	678.198196	-489.831015	482.490103	593.276033	-478.436253	425.821614	522.815742	-482.657687	500.836232	587.468829	-442.366086	364.847611	430.313286	-471.664070	381.218128	420.251945	-395.235228	291.651447	385.638235	-437.545790	572.991536	319.051589	-449.592736	463.152184	318.691278	-507.472056	-128.571089	869.585077	-314.531976	32.817250	82.302463	-515.192888	32.926378	82.433335	-115.129711	
1004	5.0200	782.438791	1176.902448	-107.838841	735.660696	1163.613834	-460.600575	774.149466	1223.944368	-296.606476	0.000000	0.000000	-0.000000	598.194010	997.786313	-24.464089	705.175598	872.476414	-135.764591	538.439626	1013.424565	-599.273160	685.755824	892.238296	-507.848337	229.702332	1208.135434	-252.755683	345.214665	1176.507908	-419.600987	342.926923	1160.538297	-110.707442	384.985379	1133.707434	-398.367559	387.352551	1126.639575	-145.098382	253.916310	1231.235197	-213.092960	257.864140	1238.521127	-296.208289	300.101375	1072.327671	-80.992258	284.121686	1104.170309	-437.300648	370.820222	994.885040	-90.053377	431.139268	931.348671	-102.076298	456.421178	849.431904	-92.015374	455.502437	945.896635	-125.858025	484.060089	715.039622	-138.560071	461.030545	711.859543	-246.585545	410.169411	632.707855	-123.496169	350.967046	566.600716	-141.575526	273.058234	533.209509	-132.199599	359.689958	559.187624	-179.415726	166.681350	470.341421	-134.537122	188.938972	484.528684	-215.863185	91.204306	505.813112	-182.189633	224.830194	251.929657	-194.956537	159.496687	336.502235	-132.411044	182.773302	324.100758	-240.836757	378.933484	1004.640509	-466.125804	442.846015	946.040678	-471.217854	471.888510	963.927091	-459.193962	469.223213	861.725275	-478.730479	522.850370	773.325720	-464.681280	531.295065	736.425558	-364.109810	492.441502	672.017885	-489.906878	480.120824	587.037215	-478.694605	424.153129	515.944502	-482.660626	498.652024	581.564410	-442.863628	364.382844	422.806661	-471.660637	380.899258	412.870417	-395.372241	291.539592	377.803769	-436.616637	572.602441	310.896278	-449.567683	462.699821	310.968570	-507.422669	-128.564603	869.583624	-314.619673	32.815878	82.303433	-515.192823	32.922505	82.425585	-115.125807	
1005	5.0250	782.661416	1178.056259	-108.299024	735.549249	1164.343860	-461.322861	773.986871	1224.752363	-297.095303	0.000000	0.000000	-0.000000	598.497803	998.434834	-24.907035	705.301295	872.526137	-135.811724	538.024215	1013.505741	-599.139507	685.605051	892.268791	-508.155601	229.399718	1205.022550	-253.776840	344.981936	1172.720378	-418.523348	342.540171	1159.214564	-111.257370	384.786965	1130.363687	-396.451091	387.043254	1125.557236	-145.611125	253.266973	1228.061573	-214.107767	257.390124	1235.279470	-297.272647	300.774960	1070.622245	-81.287044	284.306160	1100.493250	-437.678994	372.436166	994.312167	-90.825388	433.492509	931.836773	-103.152714	460.805871	850.434161	-92.980991	457.666574	947.437934	-126.944950	490.238555	716.478087	-139.645747	466.402522	713.521349	-247.506195	415.546111	635.048170	-124.433897	354.937524	570.209084	-142.463021	278.158777	537.967469	-132.344941	363.366519	562.600932	-180.213131	169.149850	477.500485	-134.636653	191.383530	491.459142	-216.163069	93.854200	513.712852	-182.072004	225.436308	258.548041	-194.992875	160.906717	343.878189	-132.302356	183.832370	331.267922	-240.864061	378.290241	1000.084362	-466.474118	441.297120	940.297391	-471.752614	470.703209	958.127821	-459.425949	466.627432	855.854533	-478.427704	519.166912	767.192787	-464.443445	527.462453	730.337465	-364.260645	488.893725	665.754344	-490.061773	477.872987	580.849857	-479.427451	422.400189	508.975144	-482.667739	496.317172	575.288251	-443.217161	363.613551	415.404001	-471.710252	380.963168	406.256123	-396.267959	291.341133	370.560084	-436.795067	571.890294	302.682462	-449.427669	462.016088	303.220513	-507.357136	-128.541296	869.580774	-314.632180	32.832647	82.279538	-515.208580	32.930238	82.432581	-115.123985	
